# xmcd
#
# Track frame offsets: 
#        150
#        16091
#        34939
#        58370
#        78600
#        97780
#        120289
#        137658
#        151158
#        173761
#        191989
#        203046
#        216107
#        240610
#        261605
#
# Disc length: 3789 seconds
#
# Revision: 0
# Processed by: cddbd v1.5.2PL0 Copyright (c) Steve Scherf et al.
# Submitted via: ExactAudioCopy v1.0b4
#
DISCID=cd0ecb0f
DTITLE=Separate - Wahrheit
DYEAR=2014
DGENRE=Rap
TTITLE0=Dopeman
TTITLE1=Kein Stress
TTITLE2=Mein Ding feat. Adas
TTITLE3=Traeume feat. Olli Banjo
TTITLE4=Wie benommen feat. Adas
TTITLE5=Nur für Dich
TTITLE6=Musik feat. Eko Fresh
TTITLE7=Was weisst du darüber
TTITLE8=Wahrheit Teil 01
TTITLE9=Was ist jetzt feat. Laas and Correy Charron
TTITLE10=Untergrundking
TTITLE11=Maison Lagerfeld feat. Chaker
TTITLE12=Katar feat. Ercandize and Overdoze
TTITLE13=Meine Bros
TTITLE14=Wahrheit Teil 02
EXTD=
EXTT0=
EXTT1=
EXTT2=
EXTT3=
EXTT4=
EXTT5=
EXTT6=
EXTT7=
EXTT8=
EXTT9=
EXTT10=
EXTT11=
EXTT12=
EXTT13=
EXTT14=
PLAYORDER=
